<?xml version="1.0" standalone="no"?>
<!DOCTYPE svg PUBLIC "-//W3C//DTD SVG 20010904//EN"
 "http://www.w3.org/TR/2001/REC-SVG-20010904/DTD/svg10.dtd">
<svg version="1.0" xmlns="http://www.w3.org/2000/svg"
 width="96.000000pt" height="96.000000pt" viewBox="0 0 96.000000 96.000000"
 preserveAspectRatio="xMidYMid meet">

<g transform="translate(0.000000,96.000000) scale(0.100000,-0.100000)"
fill="#fff" stroke="none">
<path d="M0 480 l0 -350 480 0 480 0 0 350 0 350 -480 0 -480 0 0 -350z m920
283 c-1 -24 -31 -54 -191 -193 -105 -91 -204 -171 -220 -178 -23 -10 -35 -10
-58 0 -17 7 -115 87 -220 178 -158 138 -190 170 -190 193 l-1 27 440 0 440 0
0 -27z m-700 -233 c211 -185 204 -180 260 -180 49 0 71 12 138 74 l32 30 0
-107 c0 -59 4 -107 8 -107 4 0 27 14 50 31 l42 31 43 -32 42 -31 3 187 c3 197
3 199 54 235 l28 20 0 -255 0 -256 -440 0 -440 0 0 256 c0 201 3 254 13 248 6
-4 82 -69 167 -144z m590 -86 c0 -141 0 -142 -42 -106 -15 13 -20 12 -45 -8
l-28 -22 -3 88 -3 88 53 48 c29 26 56 47 61 48 4 0 7 -61 7 -136z"/>
</g>
</svg>
